HIERARCHY
ROOT Hips
{
	OFFSET 0.00000 0.00000 0.00000
	CHANNELS 6 Xposition Yposition Zposition Zrotation Yrotation Xrotation 
	JOINT LHipJoint
	{
		OFFSET 0 0 0
		CHANNELS 3 Zrotation Yrotation Xrotation
		JOINT LeftUpLeg
		{
			OFFSET 1.52977 -1.71332 0.88991
			CHANNELS 3 Zrotation Yrotation Xrotation
			JOINT LeftLeg
			{
				OFFSET 2.23949 -6.15296 0.00000
				CHANNELS 3 Zrotation Yrotation Xrotation
				JOINT LeftFoot
				{
					OFFSET 2.68396 -7.37412 0.00000
					CHANNELS 3 Zrotation Yrotation Xrotation
					JOINT LeftToeBase
					{
						OFFSET 0.20538 -0.56428 2.52710
						CHANNELS 3 Zrotation Yrotation Xrotation
						End Site
						{
							OFFSET 0.00000 -0.00000 1.29919
						}
					}
				}
			}
		}
	}
	JOINT RHipJoint
	{
		OFFSET 0 0 0
		CHANNELS 3 Zrotation Yrotation Xrotation
		JOINT RightUpLeg
		{
			OFFSET -1.45689 -1.71333 0.88991
			CHANNELS 3 Zrotation Yrotation Xrotation
			JOINT RightLeg
			{
				OFFSET -2.36700 -6.50329 0.00000
				CHANNELS 3 Zrotation Yrotation Xrotation
				JOINT RightFoot
				{
					OFFSET -2.69814 -7.41308 0.00000
					CHANNELS 3 Zrotation Yrotation Xrotation
					JOINT RightToeBase
					{
						OFFSET -0.18734 -0.51471 2.37479
						CHANNELS 3 Zrotation Yrotation Xrotation
						End Site
						{
							OFFSET -0.00000 -0.00000 1.22113
						}
					}
				}
			}
		}
	}
	JOINT LowerBack
	{
		OFFSET 0 0 0
		CHANNELS 3 Zrotation Yrotation Xrotation
		JOINT Spine
		{
			OFFSET 0.04294 2.14638 -0.31163
			CHANNELS 3 Zrotation Yrotation Xrotation
			JOINT Spine1
			{
				OFFSET -0.00400 2.17216 0.01486
				CHANNELS 3 Zrotation Yrotation Xrotation
				JOINT Neck
				{
					OFFSET 0 0 0
					CHANNELS 3 Zrotation Yrotation Xrotation
					JOINT Neck1
					{
						OFFSET 0.03869 1.76598 0.14916
						CHANNELS 3 Zrotation Yrotation Xrotation
						JOINT Head
						{
							OFFSET -0.00760 1.75513 -0.18948
							CHANNELS 3 Zrotation Yrotation Xrotation
							End Site
							{
								OFFSET -0.00601 1.82444 -0.08310
							}
						}
					}
				}
				JOINT LeftShoulder
				{
					OFFSET 0 0 0
					CHANNELS 3 Zrotation Yrotation Xrotation
					JOINT LeftArm
					{
						OFFSET 3.73696 0.92058 0.01733
						CHANNELS 3 Zrotation Yrotation Xrotation
						JOINT LeftForeArm
						{
							OFFSET 5.22771 -0.00000 0.00000
							CHANNELS 3 Zrotation Yrotation Xrotation
							JOINT LeftHand
							{
								OFFSET 3.45251 -0.00000 0.00000
								CHANNELS 3 Zrotation Yrotation Xrotation
								JOINT LeftFingerBase
								{
									OFFSET 0 0 0
									CHANNELS 3 Zrotation Yrotation Xrotation
									JOINT LeftHandIndex1
									{
										OFFSET 0.55212 -0.00000 0.00000
										CHANNELS 3 Zrotation Yrotation Xrotation
										End Site
										{
											OFFSET 0.44513 -0.00000 0.00000
										}
									}
								}
								JOINT LThumb
								{
									OFFSET 0 0 0
									CHANNELS 3 Zrotation Yrotation Xrotation
									End Site
									{
										OFFSET 0.45193 -0.00000 0.45193
									}
								}
							}
						}
					}
				}
				JOINT RightShoulder
				{
					OFFSET 0 0 0
					CHANNELS 3 Zrotation Yrotation Xrotation
					JOINT RightArm
					{
						OFFSET -3.63819 0.83094 -0.13694
						CHANNELS 3 Zrotation Yrotation Xrotation
						JOINT RightForeArm
						{
							OFFSET -5.23980 -0.00000 -0.00000
							CHANNELS 3 Zrotation Yrotation Xrotation
							JOINT RightHand
							{
								OFFSET -3.48042 -0.00000 -0.00000
								CHANNELS 3 Zrotation Yrotation Xrotation
								JOINT RightFingerBase
								{
									OFFSET 0 0 0
									CHANNELS 3 Zrotation Yrotation Xrotation
									JOINT RightHandIndex1
									{
										OFFSET -0.61871 -0.00000 0.00000
										CHANNELS 3 Zrotation Yrotation Xrotation
										End Site
										{
											OFFSET -0.49882 -0.00000 0.00000
										}
									}
								}
								JOINT RThumb
								{
									OFFSET 0 0 0
									CHANNELS 3 Zrotation Yrotation Xrotation
									End Site
									{
										OFFSET -0.50644 -0.00000 0.50644
									}
								}
							}
						}
					}
				}
			}
		}
	}
}
MOTION
Frames: 14
Frame Time: .0083333
-6.3530 16.9125 -3.8851 -421.7490 84.2744 -422.9520 0.0000 0.0000 0.0000 -10.7658 -1.6027 -25.3571 7.2572 15.5447 49.8406 0.4175 3.1707 -13.7832 0.7500 -5.5314 -15.4307 0.0000 0.0000 0.0000 32.6193 1.7603 -1.8090 -1.9505 -8.7622 25.0543 -1.4165 -0.0062 -22.5219 -0.3608 -3.8588 10.6799 4.5083 -0.3894 1.8839 0.3457 -0.4472 1.8969 -2.1663 -0.1647 0.8607 2.6713 0.3122 -7.8025 1.2963 -0.0017 14.0442 -0.0286 0.2827 5.5225 -0.0000 -0.0000 0.0000 -86.0630 0.9716 22.1724 13.6197 -22.1884 -2.6828 -0.0000 0.0000 -16.8120 18.0476 13.5200 4.3562 -7.1250 0.0000 -0.0000 -8.5739 44.0032 0.2126 -0.0000 -0.0000 0.0000 89.6166 -1.8138 24.7971 -15.3461 24.6260 -3.3688 0.0000 0.0000 1.7208 -18.3360 -7.8224 2.5827 7.1250 -0.0000 -0.0000 7.2906 -38.1216 1.2427
-6.4155 16.9124 -3.8867 -421.9970 84.3220 -423.2410 0.0000 0.0000 0.0000 -10.7373 -1.5353 -24.9525 7.6184 15.8312 51.1761 0.4306 2.9446 -13.8258 0.7744 -5.6187 -15.6821 0.0000 0.0000 0.0000 32.5721 1.8502 -2.1114 -1.9838 -8.8323 25.2721 -1.4104 0.0057 -22.4694 -0.3781 -3.9491 10.9336 4.4766 -0.3938 1.8444 0.3498 -0.4556 1.8824 -2.1444 -0.1695 0.8675 2.6634 0.3029 -7.7948 1.2983 -0.0132 14.0502 -0.0275 0.2770 5.5230 0.0000 -0.0000 0.0000 -86.1127 0.9975 22.0267 13.5063 -22.0245 -2.6401 -0.0000 0.0000 -16.6575 18.0427 13.5316 4.3585 -7.1250 0.0000 -0.0000 -8.5810 44.0146 0.2103 0.0000 -0.0000 0.0000 89.5990 -1.8891 24.6911 -15.2815 24.5368 -3.3420 0.0000 0.0000 1.7396 -18.3742 -7.7947 2.5793 7.1250 -0.0000 -0.0000 7.2541 -38.0953 1.2411
-6.4777 16.9128 -3.8885 -422.1250 84.3660 -423.4070 0.0000 0.0000 0.0000 -10.7193 -1.4297 -24.5051 7.9666 16.0946 52.4421 0.4428 2.6675 -13.8299 0.7954 -5.6927 -15.8953 0.0000 0.0000 0.0000 32.5215 1.9500 -2.4033 -2.0149 -8.8971 25.4741 -1.4027 0.0124 -22.4051 -0.3975 -4.0479 11.2113 4.4425 -0.3937 1.8024 0.3521 -0.4581 1.8691 -2.1232 -0.1713 0.8774 2.6583 0.2954 -7.7827 1.2976 -0.0220 14.0369 -0.0275 0.2721 5.5167 -0.0000 0.0000 0.0000 -86.1596 1.0203 21.8796 13.4023 -21.8738 -2.6013 -0.0000 0.0000 -16.5188 18.0405 13.5428 4.3615 -7.1250 0.0000 -0.0000 -8.5854 44.0259 0.2080 -0.0000 0.0000 0.0000 89.5845 -1.9615 24.5847 -15.2177 24.4485 -3.3155 0.0000 0.0000 1.7774 -18.4037 -7.7667 2.5745 7.1250 -0.0000 -0.0000 7.2251 -38.0682 1.2409
-6.5394 16.9141 -3.8906 -422.0740 84.4056 -423.3960 0.0000 0.0000 0.0000 -10.7142 -1.2828 -24.0078 8.2987 16.3346 53.6317 0.4534 2.3725 -13.8071 0.8105 -5.7450 -16.0464 0.0000 0.0000 0.0000 32.4672 2.0610 -2.6735 -2.0424 -8.9538 25.6508 -1.3932 0.0117 -22.3287 -0.4182 -4.1507 11.5010 4.4042 -0.3884 1.7579 0.3513 -0.4538 1.8602 -2.1028 -0.1696 0.8937 2.6572 0.2918 -7.7688 1.2964 -0.0261 14.0066 -0.0281 0.2693 5.5048 -0.0000 -0.0000 0.0000 -86.2010 1.0382 21.7369 13.3076 -21.7363 -2.5661 -0.0000 0.0000 -16.4041 18.0442 13.5564 4.3667 -7.1250 0.0000 -0.0000 -8.5852 44.0404 0.2049 -0.0000 -0.0000 0.0000 89.5759 -2.0268 24.4773 -15.1559 24.3628 -3.2900 0.0000 0.0000 1.8403 -18.4162 -7.7678 2.5768 7.1250 -0.0000 -0.0000 7.2147 -38.0702 1.2387
-6.6008 16.9165 -3.8927 -421.9250 84.4443 -423.2790 0.0000 0.0000 0.0000 -10.7208 -1.0980 -23.4704 8.6110 16.5508 54.7348 0.4606 2.0818 -13.7469 0.8173 -5.7687 -16.1148 0.0000 0.0000 0.0000 32.4120 2.1874 -2.9254 -2.0645 -8.9991 25.7925 -1.3823 -0.0029 -22.2463 -0.4382 -4.2475 11.7740 4.3606 -0.3807 1.7059 0.3489 -0.4469 1.8524 -2.0812 -0.1664 0.9155 2.6549 0.2909 -7.7591 1.2960 -0.0266 13.9691 -0.0280 0.2680 5.4915 0.0000 0.0000 0.0000 -86.2388 1.0554 21.6010 13.2250 -21.6160 -2.5356 -0.0000 0.0000 -16.3109 18.0547 13.5770 4.3759 -7.1250 0.0000 -0.0000 -8.5803 44.0629 0.2000 0.0000 0.0000 0.0000 89.5711 -2.0828 24.3648 -15.0910 24.2727 -3.2633 0.0000 0.0000 1.9110 -18.4241 -7.7420 2.5695 7.1250 -0.0000 -0.0000 7.2043 -38.0439 1.2416
-6.6622 16.9203 -3.8947 -421.7720 84.4842 -423.1540 0.0000 0.0000 0.0000 -10.7377 -0.8827 -22.8898 8.8992 16.7424 55.7409 0.4621 1.8354 -13.6395 0.8202 -5.7786 -16.1433 0.0000 0.0000 0.0000 32.3602 2.3277 -3.1512 -2.0796 -9.0299 25.8889 -1.3696 -0.0439 -22.1574 -0.4570 -4.3366 12.0256 4.3142 -0.3746 1.6553 0.3454 -0.4420 1.8425 -2.0592 -0.1645 0.9342 2.6513 0.2940 -7.7427 1.2981 -0.0218 13.9185 -0.0265 0.2692 5.4729 -0.0000 -0.0000 0.0000 -86.2713 1.0780 21.4746 13.1538 -21.5122 -2.5094 -0.0000 0.0000 -16.2387 18.0710 13.5953 4.3859 -7.1250 0.0000 -0.0000 -8.5696 44.0836 0.1953 -0.0000 -0.0000 0.0000 89.5725 -2.1342 24.2523 -15.0270 24.1838 -3.2370 0.0000 0.0000 1.9780 -18.4181 -7.7316 2.5651 7.1250 -0.0000 -0.0000 7.2079 -38.0327 1.2442
-6.7225 16.9259 -3.8973 -421.4180 84.5220 -422.8340 0.0000 0.0000 0.0000 -10.7739 -0.6225 -22.2461 9.1587 16.9087 56.6373 0.4587 1.6341 -13.4910 0.8099 -5.7430 -16.0407 0.0000 0.0000 0.0000 32.3014 2.4773 -3.3319 -2.0865 -9.0441 25.9333 -1.3549 -0.0987 -22.0557 -0.4738 -4.4147 12.2463 4.2671 -0.3644 1.6045 0.3375 -0.4316 1.8354 -2.0413 -0.1596 0.9562 2.6485 0.2986 -7.7204 1.2978 -0.0143 13.8600 -0.0258 0.2713 5.4509 -0.0000 -0.0000 0.0000 -86.2987 1.1063 21.3636 13.0933 -21.4238 -2.4873 -0.0000 0.0000 -16.1812 18.0977 13.6112 4.3979 -7.1250 0.0000 -0.0000 -8.5490 44.1030 0.1907 -0.0000 -0.0000 0.0000 89.5786 -2.1803 24.1360 -14.9601 24.0905 -3.2096 0.0000 0.0000 2.0517 -18.4029 -7.7141 2.5571 7.1250 -0.0000 -0.0000 7.2183 -38.0133 1.2495
-6.7814 16.9334 -3.9005 -420.8560 84.5544 -422.3120 0.0000 0.0000 0.0000 -10.8255 -0.3139 -21.5376 9.3859 17.0497 57.4152 0.4480 1.4909 -13.2732 0.7923 -5.6819 -15.8643 0.0000 0.0000 0.0000 32.2378 2.6353 -3.4626 -2.0848 -9.0406 25.9225 -1.3369 -0.1793 -21.9366 -0.4882 -4.4800 12.4312 4.2235 -0.3491 1.5557 0.3253 -0.4143 1.8305 -2.0298 -0.1512 0.9798 2.6444 0.3043 -7.6908 1.2979 -0.0049 13.7983 -0.0246 0.2742 5.4266 -0.0000 0.0000 0.0000 -86.3204 1.1416 21.2659 13.0418 -21.3485 -2.4685 -0.0000 0.0000 -16.1347 18.1225 13.6191 4.4068 -7.1250 0.0000 -0.0000 -8.5284 44.1140 0.1879 -0.0000 0.0000 0.0000 89.5895 -2.2277 24.0201 -14.8954 24.0002 -3.1833 0.0000 0.0000 2.1253 -18.3858 -7.6883 2.5461 7.1250 -0.0000 -0.0000 7.2291 -37.9853 1.2564
-6.8393 16.9429 -3.9043 -420.2250 84.5890 -421.7260 0.0000 0.0000 0.0000 -10.8916 0.0196 -20.7708 9.5787 17.1660 58.0707 0.4290 1.4039 -12.9614 0.7675 -5.5943 -15.6116 0.0000 0.0000 0.0000 32.1674 2.7908 -3.5565 -2.0750 -9.0207 25.8600 -1.3159 -0.2874 -21.8009 -0.4991 -4.5292 12.5706 4.1813 -0.3339 1.5045 0.3098 -0.3972 1.8260 -2.0224 -0.1427 1.0052 2.6386 0.3093 -7.6546 1.2967 0.0044 13.7361 -0.0236 0.2770 5.4011 -0.0000 0.0000 0.0000 -86.3368 1.1837 21.1883 12.9991 -21.2860 -2.4530 -0.0000 0.0000 -16.0969 18.1404 13.6161 4.4104 -7.1250 0.0000 -0.0000 -8.5115 44.1127 0.1878 -0.0000 0.0000 0.0000 89.6045 -2.2737 23.9079 -14.8328 23.9126 -3.1578 0.0000 0.0000 2.1909 -18.3619 -7.6972 2.5455 7.1250 -0.0000 -0.0000 7.2507 -37.9929 1.2588
-6.8963 16.9538 -3.9085 -419.5560 84.6285 -421.1040 0.0000 0.0000 0.0000 -10.9717 0.3663 -19.9451 9.7363 17.2589 58.6034 0.4030 1.3558 -12.5609 0.7425 -5.5044 -15.3530 0.0000 0.0000 0.0000 32.0878 2.9405 -3.6205 -2.0587 -8.9872 25.7554 -1.2921 -0.4173 -21.6492 -0.5073 -4.5658 12.6741 4.1371 -0.3199 1.4533 0.2916 -0.3816 1.8224 -2.0168 -0.1351 1.0312 2.6314 0.3142 -7.6197 1.2936 0.0138 13.6853 -0.0229 0.2798 5.3794 0.0000 -0.0000 0.0000 -86.3510 1.2255 21.1183 12.9606 -21.2295 -2.4390 -0.0000 0.0000 -16.0591 18.1482 13.6059 4.4092 -7.1250 0.0000 -0.0000 -8.5022 44.1032 0.1896 0.0000 -0.0000 0.0000 89.6231 -2.3174 23.8013 -14.7717 23.8272 -3.1331 0.0000 0.0000 2.2515 -18.3467 -7.7249 2.5523 7.1250 -0.0000 -0.0000 7.2675 -38.0207 1.2568
-6.9528 16.9655 -3.9133 -418.9040 84.6738 -420.4960 0.0000 0.0000 0.0000 -11.0619 0.7139 -19.0738 9.8594 17.3301 59.0176 0.3724 1.3247 -12.0863 0.7228 -5.4325 -15.1464 0.0000 0.0000 0.0000 32.0005 3.0874 -3.6707 -2.0381 -8.9450 25.6236 -1.2665 -0.5625 -21.4879 -0.5141 -4.5957 12.7588 4.0910 -0.3079 1.4004 0.2719 -0.3688 1.8159 -2.0116 -0.1289 1.0552 2.6233 0.3171 -7.5867 1.2875 0.0211 13.6499 -0.0231 0.2817 5.3627 0.0000 0.0000 0.0000 -86.3627 1.2675 21.0607 12.9246 -21.1766 -2.4260 -0.0000 0.0000 -16.0179 18.1512 13.5957 4.4068 -7.1250 0.0000 -0.0000 -8.4972 44.0929 0.1917 0.0000 0.0000 0.0000 89.6438 -2.3633 23.6951 -14.7150 23.7476 -3.1103 0.0000 0.0000 2.2995 -18.3239 -7.7702 2.5637 7.1250 -0.0000 -0.0000 7.2934 -38.0664 1.2531
-7.0091 16.9775 -3.9184 -418.3870 84.7248 -420.0180 0.0000 0.0000 0.0000 -11.1545 1.0450 -18.1642 9.9492 17.3812 59.3184 0.3410 1.2708 -11.5674 0.7112 -5.3898 -15.0238 0.0000 0.0000 0.0000 31.9113 3.2291 -3.7231 -2.0160 -8.8993 25.4807 -1.2408 -0.7110 -21.3257 -0.5197 -4.6203 12.8286 4.0457 -0.3013 1.3415 0.2532 -0.3633 1.8083 -2.0057 -0.1264 1.0808 2.6159 0.3211 -7.5602 1.2796 0.0298 13.6280 -0.0238 0.2846 5.3514 -0.0000 -0.0000 0.0000 -86.3726 1.3015 21.0121 12.8886 -21.1237 -2.4130 -0.0000 0.0000 -15.9751 18.1484 13.5795 4.4009 -7.1250 0.0000 -0.0000 -8.4961 44.0760 0.1952 -0.0000 -0.0000 0.0000 89.6683 -2.4014 23.5892 -14.6549 23.6631 -3.0861 0.0000 0.0000 2.3575 -18.3182 -7.8229 2.5802 7.1250 -0.0000 -0.0000 7.3058 -38.1209 1.2454
-7.0654 16.9891 -3.9239 -418.0130 84.7817 -419.6710 0.0000 0.0000 0.0000 -11.2480 1.3541 -17.2269 10.0064 17.4135 59.5099 0.3119 1.1478 -11.0303 0.7115 -5.3908 -15.0267 0.0000 0.0000 0.0000 31.8198 3.3620 -3.7957 -1.9943 -8.8542 25.3404 -1.2147 -0.8683 -21.1624 -0.5189 -4.6166 12.8182 3.9998 -0.2990 1.2730 0.2369 -0.3638 1.7977 -1.9971 -0.1270 1.1083 2.6087 0.3245 -7.5436 1.2690 0.0375 13.6264 -0.0255 0.2872 5.3481 0.0000 -0.0000 0.0000 -86.3851 1.3268 20.9720 12.8526 -21.0708 -2.4000 -0.0000 0.0000 -15.9229 18.1513 13.5725 4.3995 -7.1250 0.0000 -0.0000 -8.4920 44.0691 0.1966 0.0000 -0.0000 0.0000 89.6929 -2.4371 23.4757 -14.5941 23.5777 -3.0618 0.0000 0.0000 2.4148 -18.3210 -7.8384 2.5856 7.1250 -0.0000 -0.0000 7.3057 -38.1373 1.2424
-7.1224 17.0001 -3.9296 -417.9180 84.8535 -419.5880 0.0000 0.0000 0.0000 -11.3441 1.6250 -16.2755 10.0316 17.4276 59.5940 0.2859 0.9327 -10.4822 0.7266 -5.4466 -15.1867 0.0000 0.0000 0.0000 31.7246 3.4868 -3.9035 -1.9750 -8.8138 25.2145 -1.1891 -1.0303 -21.0042 -0.5141 -4.5957 12.7589 3.9495 -0.3056 1.1962 0.2228 -0.3766 1.7830 -1.9837 -0.1339 1.1355 2.6024 0.3276 -7.5385 1.2557 0.0446 13.6379 -0.0281 0.2897 5.3508 0.0000 -0.0000 0.0000 -86.3998 1.3383 20.9298 12.8144 -21.0147 -2.3863 -0.0000 0.0000 -15.8631 18.1557 13.5659 4.3985 -7.1250 0.0000 -0.0000 -8.4864 44.0627 0.1978 0.0000 -0.0000 0.0000 89.7187 -2.4634 23.3563 -14.5329 23.4913 -3.0373 0.0000 0.0000 2.4687 -18.3267 -7.8491 2.5900 7.1250 -0.0000 -0.0000 7.3023 -38.1487 1.2398
